<svg width="61" height="64" viewBox="0 0 61 64" fill="none" xmlns="http://www.w3.org/2000/svg">
<path d="M60.6863 57.9264L56.2811 44.8H51.4473L54.1317 57.6H6.87004L9.55441 44.8H4.72062L0.312194 57.9264C-0.806023 61.2672 1.17583 64 4.72062 64H56.2811C59.8259 64 61.8077 61.2672 60.6863 57.9264ZM46.6135 16C46.6135 7.1648 39.4015 0 30.5009 0C21.6002 0 14.3882 7.1648 14.3882 16C14.3882 31.28 30.5009 48 30.5009 48C30.5009 48 46.6135 31.28 46.6135 16ZM21.8 16.192C21.8 11.4208 25.6928 7.5552 30.5009 7.5552C35.3089 7.5552 39.2017 11.4208 39.2017 16.192C39.2017 20.9664 35.3056 24.832 30.5009 24.832C25.6961 24.832 21.8 20.9632 21.8 16.192Z" fill="url(#paint0_linear_517_156)"/>
<defs>
<linearGradient id="paint0_linear_517_156" x1="2.76954e-07" y1="31.9995" x2="61" y2="31.9995" gradientUnits="userSpaceOnUse">
<stop offset="0.0364583" stop-color="#C3956A"/>
<stop offset="1" stop-color="#A24F03"/>
</linearGradient>
</defs>
</svg>
