<svg width="62" height="61" viewBox="0 0 62 61" fill="none" xmlns="http://www.w3.org/2000/svg">
<path d="M16.3194 44.947C16.3194 44.947 31.0694 42.9551 37.366 36.7633C43.6625 30.5715 45.6839 16.0561 45.6839 16.0561C45.6839 16.0561 30.9306 18.0481 24.6373 24.2399C18.3439 30.4317 16.3194 44.947 16.3194 44.947V44.947ZM27.8243 27.3691C30.4656 24.7704 35.5254 22.9215 39.8652 21.7714C38.6995 26.0348 36.8138 31.048 34.1822 33.6277C32.4288 35.3591 29.5776 35.3591 27.8243 33.6277C26.0645 31.9026 26.0645 29.1006 27.8243 27.3691V27.3691ZM31.0016 0C13.8782 0 0 13.6544 0 30.4984C0 47.3456 13.8782 61 31.0016 61C48.1185 61 62 47.3456 62 30.4984C62 13.6512 48.1185 0 31.0016 0V0ZM30.9984 54.643C17.4463 54.643 6.458 43.8351 6.458 30.4984C6.458 17.1649 17.4431 6.35384 30.9984 6.35384C44.5505 6.35384 55.542 17.1617 55.542 30.4984C55.542 43.8319 44.5505 54.643 30.9984 54.643Z" fill="url(#paint0_linear_517_152)"/>
<defs>
<linearGradient id="paint0_linear_517_152" x1="2.81494e-07" y1="30.4995" x2="62" y2="30.4995" gradientUnits="userSpaceOnUse">
<stop offset="0.0364583" stop-color="#C3956A"/>
<stop offset="1" stop-color="#A24F03"/>
</linearGradient>
</defs>
</svg>
