<svg width="63" height="62" viewBox="0 0 63 62" fill="none" xmlns="http://www.w3.org/2000/svg">
<path d="M31.5016 0C14.1283 0 0 13.908 0 31C0 48.092 14.1283 62 31.5016 62C48.8684 62 63 48.092 63 31C63 13.908 48.8684 0 31.5016 0ZM58.3671 31C58.3671 37.0482 56.2803 42.625 52.8024 47.0812C51.8181 46.3256 50.7714 44.2816 51.7557 42.1632C52.7499 40.032 53.0091 35.0978 52.7794 33.1765C52.5629 31.2583 51.549 26.6374 48.7962 26.5922C46.0467 26.5534 44.16 25.659 42.5261 22.4492C39.1367 15.7712 48.8881 14.4893 45.4987 10.7951C44.5505 9.75531 39.6486 15.0641 38.93 7.98896C38.8841 7.48198 39.373 6.72312 40.0324 5.93521C50.6763 9.455 58.3671 19.3589 58.3671 31ZM27.8104 4.82115C27.1673 6.05469 25.471 6.55521 24.4408 7.48198C22.1965 9.48083 21.2319 9.20312 20.0244 11.1212C18.8071 13.0394 14.883 15.8003 14.883 17.1889C14.883 18.5774 16.8647 20.2114 17.8556 19.8949C18.8465 19.572 21.4615 19.5914 22.9971 20.1209C24.5359 20.657 35.8392 21.193 32.2366 30.5964C31.0948 33.5866 26.0911 33.0828 24.759 38.0331C24.5589 38.7597 23.8666 41.8629 23.8239 42.8769C23.7419 44.4463 24.9526 50.3621 23.4138 50.3621C21.8684 50.3621 17.7113 45.0695 17.7113 44.1104C17.7113 43.1514 16.6351 39.7898 16.6351 36.9094C16.6351 34.0322 11.6544 34.0774 11.6544 30.2508C11.6544 26.8021 14.3547 25.0842 13.7477 23.4276C13.1538 21.7807 8.40941 21.7258 6.43091 21.5224C9.88589 12.7035 18.0131 6.15802 27.8104 4.82115ZM23.0496 56.0906C24.6639 55.251 24.8279 54.166 26.2913 54.1111C27.9646 54.0369 29.3263 53.4685 31.2129 53.0584C32.8863 52.7 35.8819 51.0273 38.5166 50.8142C40.7412 50.6366 45.128 50.9272 46.3091 53.0391C42.0602 55.8194 36.9646 57.4404 31.4984 57.4404C28.5487 57.4404 25.7073 56.9593 23.0496 56.0906Z" fill="url(#paint0_linear_517_154)"/>
<defs>
<linearGradient id="paint0_linear_517_154" x1="2.86034e-07" y1="30.9995" x2="63" y2="30.9995" gradientUnits="userSpaceOnUse">
<stop offset="0.0364583" stop-color="#C3956A"/>
<stop offset="1" stop-color="#A24F03"/>
</linearGradient>
</defs>
</svg>
