<svg width="65" height="58" viewBox="0 0 65 58" fill="none" xmlns="http://www.w3.org/2000/svg">
<path d="M64.3467 13.4206L56.628 7.52389C56.1892 7.22422 55.575 6.95678 54.9347 6.76022C54.2912 6.56367 53.625 6.44444 53.092 6.44444H30.875L33.4782 22.5556H53.092C53.625 22.5556 54.2913 22.4363 54.9315 22.2398C55.5718 22.0432 56.1893 21.7726 56.6248 21.4793L64.3435 15.5762C64.7822 15.283 65 14.8931 65 14.5C65 14.1069 64.7822 13.717 64.3467 13.4206ZM27.625 0H24.375C23.478 0 22.75 0.721778 22.75 1.61111V12.8889H11.908C11.3685 12.8889 10.7055 13.0081 10.0652 13.2079C9.42175 13.4012 8.8075 13.6687 8.372 13.9683L0.65325 19.865C0.2145 20.1582 0 20.5513 0 20.9444C0 21.3376 0.2145 21.7242 0.65325 22.0239L8.372 27.927C8.8075 28.2202 9.42175 28.4909 10.0652 28.6842C10.7087 28.8776 11.3685 29 11.908 29H22.75V56.3889C22.75 57.2782 23.478 58 24.375 58H27.625C28.522 58 29.25 57.2782 29.25 56.3889V1.61111C29.25 0.721778 28.522 0 27.625 0Z" fill="url(#paint0_linear_517_150)"/>
<defs>
<linearGradient id="paint0_linear_517_150" x1="2.95115e-07" y1="28.9995" x2="65" y2="28.9995" gradientUnits="userSpaceOnUse">
<stop offset="0.0364583" stop-color="#C3956A"/>
<stop offset="1" stop-color="#A24F03"/>
</linearGradient>
</defs>
</svg>
